<svg width="26" height="15" viewBox="0 0 26 15" fill="none" xmlns="http://www.w3.org/2000/svg">
<path d="M7.375 14.5C11.4375 14.5 14.75 11.1875 14.75 7.125C14.75 3.0625 11.4375 -0.25 7.375 -0.25C3.3125 -0.25 0 3.0625 0 7.125C0 11.1875 3.3125 14.5 7.375 14.5ZM19.625 14.2188C21.4062 14.2188 22.8125 11.0312 22.8125 7.125C22.8125 3.21875 21.4062 0.03125 19.625 0.03125C17.8438 0.03125 16.4375 3.21875 16.4375 7.125C16.4375 11.0312 17.8438 14.2188 19.625 14.2188ZM24.125 13.75C24.8125 13.75 25.375 10.8125 25.375 7.125C25.375 3.4375 24.8125 0.5 24.125 0.5C23.4375 0.5 22.875 3.4375 22.875 7.125C22.875 10.8125 23.4375 13.75 24.125 13.75Z" fill="#03045E"/>
</svg>