<svg width="26" height="17" viewBox="0 0 26 17" fill="none" xmlns="http://www.w3.org/2000/svg">
<path d="M6.5 0.5C8.71875 0.5 10.375 1.125 11.4688 2.375C12.5625 3.625 13.1094 5.21875 13.1094 7.15625C13.1094 9.09375 12.5625 10.6875 11.4688 11.9375C10.375 13.1875 8.71875 13.8125 6.5 13.8125H0.5V0.5H6.5ZM6.1875 5.84375C7.125 5.84375 7.59375 5.375 7.59375 4.4375C7.59375 3.5 7.125 3.03125 6.1875 3.03125H3.5V5.84375H6.1875ZM6.5 11.2812C7.4375 11.2812 7.90625 10.8125 7.90625 9.875C7.90625 8.9375 7.4375 8.46875 6.5 8.46875H3.5V11.2812H6.5ZM19.75 13.8125C17.5312 13.8125 15.875 13.1875 14.7812 11.9375C13.6875 10.6875 13.1406 9.09375 13.1406 7.15625C13.1406 5.21875 13.6875 3.625 14.7812 2.375C15.875 1.125 17.5312 0.5 19.75 0.5C21.9688 0.5 23.625 1.125 24.7188 2.375C25.8125 3.625 26.3594 5.21875 26.3594 7.15625C26.3594 9.09375 25.8125 10.6875 24.7188 11.9375C23.625 13.1875 21.9688 13.8125 19.75 13.8125ZM19.75 11.2812C20.6875 11.2812 21.1562 10.8125 21.1562 9.875C21.1562 8.9375 20.6875 8.46875 19.75 8.46875C18.8125 8.46875 18.3438 8.9375 18.3438 9.875C18.3438 10.8125 18.8125 11.2812 19.75 11.2812ZM19.75 5.84375C20.6875 5.84375 21.1562 5.375 21.1562 4.4375C21.1562 3.5 20.6875 3.03125 19.75 3.03125C18.8125 3.03125 18.3438 3.5 18.3438 4.4375C18.3438 5.375 18.8125 5.84375 19.75 5.84375Z" fill="#03045E"/>
<path d="M15.5 2H24" stroke="#03045E" stroke-width="1"/>
</svg>