<svg width="20" height="16" viewBox="0 0 20 16" fill="none" xmlns="http://www.w3.org/2000/svg">
<path d="M6.09319 16C13.4048 16 17.4032 9.84498 17.4032 4.50753C17.4032 4.33273 17.3997 4.15873 17.392 3.98545C18.17 3.41341 18.8414 2.70514 19.3748 1.89384C18.6626 2.2156 17.8961 2.43216 17.0921 2.5298C17.9128 2.02976 18.5428 1.23868 18.8401 0.29572C18.0598 0.766079 17.2061 1.09766 16.3159 1.27616C15.5906 0.491041 14.5579 0 13.4144 0C11.2192 0 9.43905 1.80888 9.43905 4.03861C9.43905 4.35561 9.47398 4.66385 9.54218 4.95961C6.23842 4.79069 3.30888 3.1834 1.34828 0.739441C0.995161 1.35586 0.809425 2.05643 0.810041 2.7696C0.810041 4.17097 1.51179 5.40805 2.57898 6.13181C1.94772 6.11222 1.33032 5.93896 0.778695 5.62661C0.778104 5.64357 0.778104 5.66009 0.778104 5.67821C0.778104 7.63433 2.14828 9.26757 3.96715 9.63765C3.62555 9.73219 3.27304 9.77998 2.91898 9.77977C2.66329 9.77977 2.4141 9.75421 2.17191 9.70698C2.67798 11.3119 4.14543 12.4797 5.88526 12.5124C4.52473 13.5959 2.81089 14.2413 0.948185 14.2413C0.631316 14.2416 0.314706 14.2229 0 14.1854C1.75925 15.3312 3.84819 15.9997 6.09338 15.9997" fill="#03045E"/>
</svg>
